<svg id="svg" version="1.1" width="2000" height="2000" xmlns="http://www.w3.org/2000/svg" xmlns:xlink="http://www.w3.org/1999/xlink" style="display: block;"><g id="svgg"><path id="path0" d="M0.000 200.000 L 0.000 400.000 200.000 400.000 L 400.000 400.000 400.000 200.000 L 400.000 0.000 200.000 0.000 L 0.000 0.000 0.000 200.000 M325.047 31.250 L 325.100 37.500 337.550 37.552 L 350.000 37.603 350.000 43.802 L 350.000 50.000 356.197 50.000 L 362.394 50.000 362.447 56.250 L 362.500 62.500 368.748 62.553 L 374.997 62.606 375.048 75.053 L 375.100 87.500 381.250 87.553 L 387.400 87.606 387.400 118.803 L 387.400 150.000 381.200 150.000 L 375.000 150.000 375.000 162.497 L 375.000 174.994 368.750 175.047 L 362.500 175.100 362.447 181.247 L 362.394 187.394 356.247 187.447 L 350.100 187.500 350.047 193.750 L 349.994 200.000 337.497 200.000 L 325.000 200.000 325.000 206.200 L 325.000 212.400 293.803 212.400 L 262.606 212.400 262.553 206.250 L 262.500 200.100 250.053 200.048 L 237.606 199.997 237.553 193.748 L 237.500 187.500 231.250 187.447 L 225.000 187.394 225.000 181.197 L 225.000 175.000 218.802 175.000 L 212.603 175.000 212.552 162.550 L 212.500 150.100 206.250 150.047 L 200.000 149.994 200.000 118.800 L 200.000 87.606 206.250 87.553 L 212.500 87.500 212.552 75.053 L 212.603 62.606 218.752 62.553 L 224.900 62.500 224.953 56.253 L 225.006 50.006 231.253 49.953 L 237.500 49.900 237.553 43.752 L 237.606 37.603 250.053 37.552 L 262.500 37.500 262.553 31.250 L 262.606 25.000 293.800 25.000 L 324.994 25.000 325.047 31.250 M150.000 193.800 L 150.000 200.000 162.497 200.000 L 174.994 200.000 175.047 206.250 L 175.100 212.500 181.247 212.553 L 187.394 212.606 187.447 218.753 L 187.500 224.900 193.750 224.953 L 200.000 225.006 200.000 237.503 L 200.000 250.000 206.200 250.000 L 212.400 250.000 212.400 281.197 L 212.400 312.394 206.250 312.447 L 200.100 312.500 200.048 324.947 L 199.997 337.394 193.748 337.447 L 187.500 337.500 187.447 343.750 L 187.394 350.000 181.197 350.000 L 175.000 350.000 175.000 356.198 L 175.000 362.397 162.550 362.448 L 150.100 362.500 150.047 368.750 L 149.994 375.000 118.800 375.000 L 87.606 375.000 87.553 368.750 L 87.500 362.500 75.053 362.448 L 62.606 362.397 62.553 356.248 L 62.500 350.100 56.253 350.047 L 50.006 349.994 49.953 343.747 L 49.900 337.500 43.752 337.447 L 37.603 337.394 37.552 324.947 L 37.500 312.500 31.250 312.447 L 25.000 312.394 25.000 281.200 L 25.000 250.006 31.250 249.953 L 37.500 249.900 37.552 237.450 L 37.603 225.000 43.802 225.000 L 50.000 225.000 50.000 218.803 L 50.000 212.606 56.250 212.553 L 62.500 212.500 62.553 206.252 L 62.606 200.003 75.053 199.952 L 87.500 199.900 87.553 193.750 L 87.606 187.600 118.803 187.600 L 150.000 187.600 150.000 193.800 " stroke="none" fill="#000000" fill-rule="evenodd"></path><path id="path1" d="M262.553 31.250 L 262.500 37.500 250.053 37.552 L 237.606 37.603 237.553 43.752 L 237.500 49.900 231.253 49.953 L 225.006 50.006 224.953 56.253 L 224.900 62.500 218.752 62.553 L 212.603 62.606 212.552 75.053 L 212.500 87.500 206.250 87.553 L 200.000 87.606 200.000 118.800 L 200.000 149.994 206.250 150.047 L 212.500 150.100 212.552 162.550 L 212.603 175.000 218.802 175.000 L 225.000 175.000 225.000 181.197 L 225.000 187.394 231.250 187.447 L 237.500 187.500 237.553 193.748 L 237.606 199.997 250.053 200.048 L 262.500 200.100 262.553 206.250 L 262.606 212.400 293.803 212.400 L 325.000 212.400 325.000 206.200 L 325.000 200.000 337.497 200.000 L 349.994 200.000 350.047 193.750 L 350.100 187.500 356.247 187.447 L 362.394 187.394 362.447 181.247 L 362.500 175.100 368.750 175.047 L 375.000 174.994 375.000 162.497 L 375.000 150.000 381.200 150.000 L 387.400 150.000 387.400 118.803 L 387.400 87.606 381.250 87.553 L 375.100 87.500 375.048 75.053 L 374.997 62.606 368.748 62.553 L 362.500 62.500 362.447 56.250 L 362.394 50.000 356.197 50.000 L 350.000 50.000 350.000 43.802 L 350.000 37.603 337.550 37.552 L 325.100 37.500 325.047 31.250 L 324.994 25.000 293.800 25.000 L 262.606 25.000 262.553 31.250 M325.000 43.800 L 325.000 50.000 337.500 50.000 L 350.000 50.000 350.000 56.199 L 350.000 62.398 331.250 62.449 L 312.500 62.500 312.448 74.947 L 312.397 87.394 306.348 87.451 L 300.300 87.509 306.400 87.504 L 312.500 87.500 312.552 75.050 L 312.603 62.600 337.500 62.600 L 362.397 62.600 362.448 75.050 L 362.500 87.500 368.750 87.553 L 375.000 87.606 375.000 118.800 L 375.000 149.994 368.750 150.047 L 362.500 150.100 362.448 162.555 L 362.397 175.011 356.148 174.955 L 349.900 174.900 349.955 181.148 L 350.011 187.397 337.555 187.448 L 325.100 187.500 325.047 193.750 L 324.994 200.000 293.800 200.000 L 262.606 200.000 262.553 193.750 L 262.500 187.500 250.050 187.448 L 237.600 187.397 237.552 168.748 C 237.512 153.719,237.493 152.516,237.450 162.550 L 237.397 175.000 231.198 175.000 L 225.000 175.000 225.000 162.500 L 225.000 150.000 218.800 150.000 L 212.600 150.000 212.600 118.803 L 212.600 87.606 218.750 87.553 L 224.900 87.500 224.952 75.050 L 225.003 62.600 231.200 62.600 L 237.397 62.600 237.448 75.050 L 237.500 87.500 249.947 87.552 L 262.394 87.603 262.451 93.652 L 262.509 99.700 262.504 93.600 L 262.500 87.500 250.050 87.448 L 237.600 87.397 237.600 74.998 L 237.600 62.600 256.250 62.551 L 274.900 62.502 256.250 62.450 L 237.600 62.398 237.600 56.200 L 237.600 50.003 250.050 49.952 L 262.500 49.900 262.553 43.750 L 262.606 37.600 293.803 37.600 L 325.000 37.600 325.000 43.800 M281.197 87.549 L 287.394 87.606 287.451 93.803 L 287.509 100.000 287.504 93.750 L 287.500 87.500 281.250 87.496 L 275.000 87.491 281.197 87.549 M331.150 87.550 C 334.588 87.581,340.213 87.581,343.650 87.550 C 347.088 87.519,344.275 87.494,337.400 87.494 C 330.525 87.494,327.713 87.519,331.150 87.550 M312.498 118.800 L 312.500 137.500 318.600 137.504 L 324.700 137.509 318.651 137.451 L 312.602 137.394 312.549 118.747 L 312.497 100.100 312.498 118.800 M262.491 137.652 C 262.438 137.791,262.419 140.648,262.450 144.002 L 262.506 150.100 262.553 143.853 L 262.600 137.606 268.850 137.550 L 275.100 137.494 268.844 137.447 C 263.961 137.410,262.566 137.455,262.491 137.652 M287.491 137.652 C 287.437 137.791,287.419 140.603,287.450 143.902 L 287.506 149.900 287.553 143.753 L 287.600 137.606 293.850 137.550 L 300.100 137.494 293.844 137.447 C 288.959 137.410,287.566 137.455,287.491 137.652 M312.494 162.400 C 312.494 169.275,312.519 172.088,312.550 168.650 C 312.581 165.213,312.581 159.588,312.550 156.150 C 312.519 152.713,312.494 155.525,312.494 162.400 M87.553 193.750 L 87.500 199.900 75.053 199.952 L 62.606 200.003 62.553 206.252 L 62.500 212.500 56.250 212.553 L 50.000 212.606 50.000 218.803 L 50.000 225.000 43.802 225.000 L 37.603 225.000 37.552 237.450 L 37.500 249.900 31.250 249.953 L 25.000 250.006 25.000 281.200 L 25.000 312.394 31.250 312.447 L 37.500 312.500 37.552 324.947 L 37.603 337.394 43.752 337.447 L 49.900 337.500 49.953 343.747 L 50.006 349.994 56.253 350.047 L 62.500 350.100 62.553 356.248 L 62.606 362.397 75.053 362.448 L 87.500 362.500 87.553 368.750 L 87.606 375.000 118.800 375.000 L 149.994 375.000 150.047 368.750 L 150.100 362.500 162.550 362.448 L 175.000 362.397 175.000 356.198 L 175.000 350.000 181.197 350.000 L 187.394 350.000 187.447 343.750 L 187.500 337.500 193.748 337.447 L 199.997 337.394 200.048 324.947 L 200.100 312.500 206.250 312.447 L 212.400 312.394 212.400 281.197 L 212.400 250.000 206.200 250.000 L 200.000 250.000 200.000 237.503 L 200.000 225.006 193.750 224.953 L 187.500 224.900 187.447 218.753 L 187.394 212.606 181.247 212.553 L 175.100 212.500 175.047 206.250 L 174.994 200.000 162.497 200.000 L 150.000 200.000 150.000 193.800 L 150.000 187.600 118.803 187.600 L 87.606 187.600 87.553 193.750 M150.047 206.250 L 150.100 212.500 162.550 212.552 L 175.000 212.603 175.000 218.802 L 175.000 225.000 181.198 225.000 L 187.397 225.000 187.448 237.450 L 187.500 249.900 193.750 249.953 L 200.000 250.006 200.000 281.200 L 200.000 312.394 193.750 312.447 L 187.500 312.500 187.448 324.947 L 187.397 337.394 181.248 337.447 L 175.100 337.500 175.047 343.750 L 174.994 350.000 162.497 350.000 L 150.000 350.000 150.000 356.200 L 150.000 362.400 118.803 362.400 L 87.606 362.400 87.553 356.250 L 87.500 350.100 75.053 350.048 L 62.606 349.997 62.553 343.748 L 62.500 337.500 56.252 337.447 L 50.003 337.394 49.952 324.947 L 49.900 312.500 43.750 312.447 L 37.600 312.394 37.600 281.197 L 37.600 250.000 43.800 250.000 L 50.000 250.000 50.000 237.503 L 50.000 225.006 56.250 224.953 L 62.500 224.900 62.553 218.752 L 62.606 212.603 75.053 212.552 L 87.500 212.500 87.553 206.250 L 87.606 200.000 118.800 200.000 L 149.994 200.000 150.047 206.250 " stroke="none" fill="#5f574f" fill-rule="evenodd"></path><path id="path2" d="M62.449 243.750 L 62.500 262.500 68.700 262.500 L 74.900 262.500 74.953 256.253 L 75.006 250.006 81.253 249.953 L 87.500 249.900 87.553 243.750 L 87.606 237.600 112.503 237.600 L 137.400 237.600 137.400 243.800 L 137.400 250.000 131.200 250.000 L 125.000 250.000 125.000 256.197 L 125.000 262.394 118.750 262.447 L 112.500 262.500 112.447 268.750 L 112.394 275.000 106.197 275.000 L 100.000 275.000 100.000 281.197 L 100.000 287.394 93.750 287.447 L 87.500 287.500 87.447 293.750 L 87.394 300.000 81.197 300.000 L 75.000 300.000 75.000 306.197 L 75.000 312.394 68.750 312.447 L 62.500 312.500 62.500 325.000 L 62.500 337.500 118.750 337.550 L 175.000 337.601 175.000 318.798 L 175.000 299.994 168.750 300.047 L 162.500 300.100 162.447 306.247 L 162.394 312.394 156.247 312.447 L 150.100 312.500 150.047 318.750 L 149.994 325.000 124.997 325.000 L 100.000 325.000 100.000 318.803 L 100.000 312.606 106.250 312.553 L 112.500 312.500 112.553 306.250 L 112.606 300.000 118.803 300.000 L 125.000 300.000 125.000 293.803 L 125.000 287.606 131.250 287.553 L 137.500 287.500 137.553 281.250 L 137.606 275.000 143.803 275.000 L 150.000 275.000 150.000 268.803 L 150.000 262.606 156.250 262.553 L 162.500 262.500 162.553 256.250 L 162.606 250.000 168.803 250.000 L 175.000 250.000 175.000 237.500 L 175.000 225.000 118.699 225.000 L 62.398 225.000 62.449 243.750 " stroke="none" fill="#29adff" fill-rule="evenodd"></path><path id="path3" d="M262.553 43.750 L 262.500 49.900 250.050 49.952 L 237.600 50.003 237.600 56.200 L 237.600 62.398 256.250 62.449 L 274.900 62.500 274.952 74.947 L 275.003 87.394 281.252 87.447 L 287.500 87.500 287.553 93.753 L 287.606 100.006 293.753 99.953 L 299.900 99.900 300.000 93.700 L 300.100 87.500 306.248 87.447 L 312.397 87.394 312.448 74.947 L 312.500 62.500 331.250 62.449 L 350.000 62.398 350.000 56.199 L 350.000 50.000 337.500 50.000 L 325.000 50.000 325.000 43.800 L 325.000 37.600 293.803 37.600 L 262.606 37.600 262.553 43.750 M224.952 75.050 L 224.900 87.500 218.750 87.553 L 212.600 87.606 212.600 118.803 L 212.600 150.000 218.800 150.000 L 225.000 150.000 225.000 162.500 L 225.000 175.000 231.198 175.000 L 237.397 175.000 237.448 162.550 L 237.500 150.100 249.947 150.048 L 262.394 149.997 262.447 143.748 L 262.500 137.500 268.751 137.447 L 275.002 137.394 274.951 118.747 L 274.900 100.100 268.700 100.000 L 262.500 99.900 262.447 93.752 L 262.394 87.603 249.947 87.552 L 237.500 87.500 237.448 75.050 L 237.397 62.600 231.200 62.600 L 225.003 62.600 224.952 75.050 M349.952 75.050 L 349.900 87.500 337.450 87.552 L 325.000 87.603 325.000 93.802 L 325.000 100.000 318.800 100.000 L 312.600 100.000 312.600 118.697 L 312.600 137.394 318.750 137.447 L 324.900 137.500 325.000 143.700 L 325.100 149.900 337.550 149.952 L 350.000 150.003 350.000 162.503 L 350.000 175.002 331.250 174.951 L 312.500 174.900 312.448 162.450 L 312.397 150.000 306.198 150.000 L 300.000 150.000 300.000 143.800 L 300.000 137.600 293.803 137.600 L 287.606 137.600 287.553 143.750 L 287.500 149.900 281.300 150.000 L 275.100 150.100 275.048 162.550 L 274.997 175.000 256.298 175.000 L 237.600 175.000 237.600 181.198 L 237.600 187.397 250.050 187.448 L 262.500 187.500 262.553 193.750 L 262.606 200.000 293.800 200.000 L 324.994 200.000 325.047 193.750 L 325.100 187.500 337.550 187.448 L 350.000 187.397 350.000 181.198 L 350.000 175.000 356.198 175.000 L 362.397 175.000 362.448 162.550 L 362.500 150.100 368.750 150.047 L 375.000 149.994 375.000 118.800 L 375.000 87.606 368.750 87.553 L 362.500 87.500 362.448 75.050 L 362.397 62.600 356.200 62.600 L 350.003 62.600 349.952 75.050 M87.553 206.250 L 87.500 212.500 75.053 212.552 L 62.606 212.603 62.553 218.752 L 62.500 224.900 56.250 224.953 L 50.000 225.006 50.000 237.503 L 50.000 250.000 43.800 250.000 L 37.600 250.000 37.600 281.197 L 37.600 312.394 43.750 312.447 L 49.900 312.500 49.952 324.947 L 50.003 337.394 56.252 337.447 L 62.500 337.500 62.553 343.748 L 62.606 349.997 75.053 350.048 L 87.500 350.100 87.553 356.250 L 87.606 362.400 118.803 362.400 L 150.000 362.400 150.000 356.200 L 150.000 350.000 162.497 350.000 L 174.994 350.000 175.047 343.750 L 175.100 337.500 181.248 337.447 L 187.397 337.394 187.448 324.947 L 187.500 312.500 193.750 312.447 L 200.000 312.394 200.000 281.200 L 200.000 250.006 193.750 249.953 L 187.500 249.900 187.448 237.450 L 187.397 225.000 181.198 225.000 L 175.000 225.000 175.000 218.802 L 175.000 212.603 162.550 212.552 L 150.100 212.500 150.047 206.250 L 149.994 200.000 118.800 200.000 L 87.606 200.000 87.553 206.250 M175.000 237.500 L 175.000 250.000 168.803 250.000 L 162.606 250.000 162.553 256.250 L 162.500 262.500 156.250 262.553 L 150.000 262.606 150.000 268.803 L 150.000 275.000 143.803 275.000 L 137.606 275.000 137.553 281.250 L 137.500 287.500 131.250 287.553 L 125.000 287.606 125.000 293.803 L 125.000 300.000 118.803 300.000 L 112.606 300.000 112.553 306.250 L 112.500 312.500 106.250 312.553 L 100.000 312.606 100.000 318.803 L 100.000 325.000 124.997 325.000 L 149.994 325.000 150.047 318.750 L 150.100 312.500 156.247 312.447 L 162.394 312.394 162.447 306.247 L 162.500 300.100 168.750 300.047 L 175.000 299.994 175.000 318.798 L 175.000 337.601 118.750 337.550 L 62.500 337.500 62.500 325.000 L 62.500 312.500 68.750 312.447 L 75.000 312.394 75.000 306.197 L 75.000 300.000 81.197 300.000 L 87.394 300.000 87.447 293.750 L 87.500 287.500 93.750 287.447 L 100.000 287.394 100.000 281.197 L 100.000 275.000 106.197 275.000 L 112.394 275.000 112.447 268.750 L 112.500 262.500 118.750 262.447 L 125.000 262.394 125.000 256.197 L 125.000 250.000 131.200 250.000 L 137.400 250.000 137.400 243.800 L 137.400 237.600 112.503 237.600 L 87.606 237.600 87.553 243.750 L 87.500 249.900 81.253 249.953 L 75.006 250.006 74.953 256.253 L 74.900 262.500 68.700 262.500 L 62.500 262.500 62.449 243.750 L 62.398 225.000 118.699 225.000 L 175.000 225.000 175.000 237.500 " stroke="none" fill="#c2c3c7" fill-rule="evenodd"></path><path id="path4" d="M237.600 74.998 L 237.600 87.397 250.050 87.448 L 262.500 87.500 262.553 93.750 L 262.606 100.000 268.803 100.000 L 275.000 100.000 275.000 118.800 L 275.000 137.600 268.800 137.600 L 262.600 137.600 262.600 143.800 L 262.600 150.000 250.100 150.000 L 237.600 150.000 237.600 162.501 L 237.600 175.002 256.250 174.951 L 274.900 174.900 274.952 162.450 L 275.003 150.000 281.199 150.000 L 287.394 150.000 287.447 143.750 L 287.500 137.500 293.747 137.447 L 299.994 137.394 300.047 143.647 L 300.100 149.900 306.350 149.953 L 312.600 150.006 312.600 162.504 L 312.600 175.002 331.250 174.951 L 349.900 174.900 349.900 162.500 L 349.900 150.100 337.450 150.048 L 325.000 149.997 325.000 143.801 L 325.000 137.606 318.750 137.553 L 312.500 137.500 312.449 118.753 L 312.398 100.006 318.649 99.953 L 324.900 99.900 324.953 93.650 L 325.006 87.400 337.503 87.400 L 350.000 87.400 350.000 75.000 L 350.000 62.600 331.302 62.600 L 312.603 62.600 312.552 75.050 L 312.500 87.500 306.250 87.553 L 300.000 87.606 300.000 93.803 L 300.000 100.000 293.700 100.000 L 287.400 100.000 287.400 93.800 L 287.400 87.600 281.200 87.600 L 275.000 87.600 275.000 75.100 L 275.000 62.600 256.300 62.600 L 237.600 62.600 237.600 74.998 " stroke="none" fill="#ff004d" fill-rule="evenodd"></path></g></svg>